<?xml version="1.0" standalone="no"?>
<!DOCTYPE svg PUBLIC "-//W3C//DTD SVG 20010904//EN"
 "http://www.w3.org/TR/2001/REC-SVG-20010904/DTD/svg10.dtd">
<svg version="1.0" xmlns="http://www.w3.org/2000/svg"
 width="2302.000000pt" height="2302.000000pt" viewBox="0 0 2302.000000 2302.000000"
 preserveAspectRatio="xMidYMid meet">
<metadata>
Created by potrace 1.11, written by Peter Selinger 2001-2013
</metadata>
<g transform="translate(0.000000,2302.000000) scale(0.100000,-0.100000)"
fill="#000000" stroke="none">
<path d="M4205 21839 c-22 -4 -92 -18 -155 -29 -179 -34 -355 -95 -565 -196
-93 -45 -275 -143 -355 -192 -91 -55 -226 -125 -271 -141 -40 -15 -78 -18
-187 -16 -239 4 -512 -43 -920 -159 -186 -53 -463 -146 -617 -207 -60 -24
-112 -44 -115 -45 -29 -7 -273 -128 -350 -174 -238 -140 -435 -319 -552 -500
-40 -61 -112 -200 -107 -204 7 -5 164 -36 234 -46 39 -5 79 -12 90 -14 11 -2
54 -7 95 -11 41 -4 82 -8 90 -10 8 -1 60 -6 115 -9 55 -4 107 -9 115 -11 8 -2
56 -7 105 -10 50 -3 110 -7 135 -9 25 -3 81 -7 125 -11 44 -3 100 -8 125 -10
25 -2 81 -7 125 -10 155 -11 338 -28 453 -40 111 -13 138 -16 157 -20 11 -2
43 -7 70 -10 28 -4 57 -8 65 -10 8 -3 33 -7 55 -11 146 -22 221 -44 274 -81
110 -76 215 -229 297 -432 44 -110 108 -343 119 -436 4 -27 10 -77 15 -110 8
-61 5 -411 -5 -540 -12 -158 -5 -418 12 -500 5 -24 9 -15 20 52 7 45 19 97 27
115 l14 33 -1 -60 c-2 -54 0 -60 19 -63 12 -2 21 3 21 10 2 35 35 165 52 202
l19 41 2 -70 c6 -191 -2 -491 -14 -565 -3 -14 -7 -61 -10 -105 -4 -44 -8 -91
-10 -105 -3 -14 -7 -47 -11 -75 -5 -44 -18 -132 -30 -205 -17 -104 -35 -221
-35 -226 0 -4 7 0 16 7 15 12 16 8 11 -46 -3 -33 -11 -85 -16 -115 -13 -67
-15 -78 -46 -260 -27 -156 -45 -437 -26 -410 6 8 18 41 27 72 9 32 22 62 29
68 13 11 18 -14 31 -150 6 -69 22 -128 40 -154 13 -19 15 -18 30 22 21 52 34
54 29 5 -14 -120 -17 -212 -7 -229 10 -17 11 -17 23 9 15 33 25 34 35 5 6 -21
7 -21 20 -3 8 10 14 26 14 36 0 9 9 27 20 40 l19 24 2 -120 c1 -182 14 -253
42 -242 10 4 18 -18 30 -76 9 -45 26 -116 37 -157 32 -115 48 -225 44 -307 -2
-41 -6 -79 -9 -83 -28 -45 -34 -312 -11 -480 12 -89 19 -121 41 -210 43 -171
96 -312 170 -461 133 -263 415 -593 690 -804 199 -154 255 -215 359 -390 26
-44 57 -96 69 -115 68 -116 207 -323 288 -432 59 -78 349 -449 359 -458 3 -3
25 -32 50 -65 25 -33 47 -62 50 -65 6 -6 89 -117 110 -146 217 -310 303 -470
499 -919 29 -66 62 -140 73 -165 11 -25 35 -79 53 -120 18 -41 44 -100 58
-130 14 -30 40 -86 57 -125 155 -337 283 -667 369 -950 26 -87 86 -307 96
-354 2 -9 13 -50 24 -91 16 -59 80 -326 96 -400 2 -8 10 -44 19 -80 8 -36 17
-76 20 -90 2 -14 11 -56 20 -95 9 -38 18 -81 20 -95 4 -25 22 -117 56 -290 25
-126 66 -372 91 -545 17 -124 50 -324 64 -395 2 -13 7 -40 10 -60 3 -20 7 -47
10 -60 18 -90 19 -101 31 -215 5 -38 8 -106 8 -150 0 -144 -9 -156 -439 -589
-365 -366 -530 -515 -663 -597 -129 -80 -158 -108 -201 -190 -62 -118 -69
-124 -163 -142 -129 -25 -387 -40 -678 -40 -182 0 -204 6 -424 122 -203 107
-288 130 -392 106 -142 -33 -254 -131 -312 -274 -12 -29 -22 -64 -22 -77 0
-22 3 -21 37 17 45 49 140 118 208 150 71 34 213 37 275 7 44 -22 73 -68 62
-97 -3 -9 -24 -41 -48 -71 -89 -116 -149 -257 -160 -375 -7 -78 -7 -73 -5
-100 1 -22 8 -15 98 100 26 33 50 62 53 65 3 3 18 23 35 45 37 50 86 105 94
105 4 0 17 -27 31 -61 13 -33 36 -74 51 -90 24 -26 31 -28 75 -23 27 2 85 12
128 20 83 17 177 14 201 -6 21 -17 119 -19 220 -4 198 29 248 22 359 -53 l81
-56 160 6 c240 9 261 14 360 81 112 75 140 85 219 81 39 -2 103 -8 141 -14 39
-5 99 -13 135 -16 36 -4 72 -8 80 -10 85 -16 412 -23 543 -12 91 8 102 13 149
65 44 49 74 127 81 210 3 35 13 74 21 87 20 30 80 48 166 49 114 1 179 -48
230 -172 18 -42 39 -92 47 -110 17 -35 79 -89 90 -78 13 13 3 137 -18 223 -51
211 -219 354 -417 356 -71 0 -240 -33 -267 -53 -26 -19 -275 -103 -395 -134
-148 -38 -221 -41 -282 -12 -62 30 -81 58 -81 123 -1 108 19 149 140 295 194
232 460 510 881 922 233 227 412 540 447 781 3 22 8 46 10 52 18 53 24 393 10
583 -10 152 -12 174 -19 250 -4 50 -16 221 -18 260 -3 47 16 38 62 -30 47 -70
98 -130 110 -130 5 0 6 10 3 22 -4 21 -2 21 20 -6 14 -16 35 -51 48 -77 12
-27 27 -48 33 -46 12 4 13 41 2 72 -4 11 6 3 24 -18 29 -34 60 -49 60 -29 0 5
-7 23 -16 41 -23 47 -10 50 19 4 13 -21 31 -44 40 -51 26 -22 31 5 8 43 -24
42 -10 46 24 8 13 -16 25 -26 28 -23 9 10 -73 237 -114 312 -19 37 -9 48 19
20 l27 -27 3 28 c2 17 -4 37 -13 47 -10 11 -15 24 -13 31 4 12 36 -17 93 -85
16 -20 35 -36 41 -36 20 0 25 31 9 63 -8 16 -15 35 -15 40 0 15 48 -32 68 -65
20 -35 26 -35 38 -2 9 26 9 26 64 -42 30 -38 60 -73 66 -79 6 -5 30 -35 55
-65 135 -167 122 -155 150 -137 16 11 29 13 39 7 26 -17 29 -11 23 43 l-6 52
33 -30 33 -30 -7 55 c-4 30 -12 58 -18 61 -6 4 -7 12 -4 18 5 8 15 5 33 -9 14
-11 29 -20 33 -20 17 0 4 35 -24 63 l-31 30 33 -6 c17 -4 32 -5 32 -3 0 5 -20
68 -29 91 -26 65 -47 105 -91 172 -27 42 -48 79 -45 83 2 4 16 5 30 2 21 -4
24 -1 19 13 -11 29 28 2 62 -42 46 -61 58 -74 76 -84 14 -8 16 -5 9 19 -11 38
-38 90 -67 129 -34 45 -32 79 2 36 14 -18 29 -33 33 -33 5 0 8 23 7 50 -1 28
-1 50 0 50 1 0 12 -16 24 -35 20 -32 23 -34 35 -19 6 9 17 14 22 11 19 -12 23
21 8 64 -25 71 -18 77 30 24 34 -39 44 -45 44 -30 0 33 -24 124 -67 251 -58
173 -72 230 -59 243 27 27 118 2 222 -62 11 -7 49 -29 85 -51 175 -104 248
-168 282 -244 27 -60 25 -111 -10 -238 -40 -144 -43 -170 -20 -227 20 -53 23
-93 8 -102 -16 -10 -12 -23 10 -30 26 -8 26 -36 0 -110 -31 -89 -34 -169 -6
-146 8 7 11 -24 11 -122 0 -148 6 -206 40 -407 9 -52 18 -111 21 -130 3 -19 7
-42 9 -50 2 -8 7 -38 10 -66 3 -28 8 -61 10 -75 3 -13 8 -64 12 -114 13 -181
8 -228 -45 -440 -31 -120 -78 -326 -87 -377 -3 -16 -12 -56 -20 -90 -8 -35
-16 -76 -19 -93 -24 -133 -132 -558 -185 -720 -10 -33 -45 -141 -76 -240 -82
-262 -225 -629 -255 -655 -3 -3 -22 -27 -42 -55 -55 -75 -102 -111 -545 -410
-254 -171 -287 -189 -433 -225 -67 -17 -143 -41 -169 -53 -72 -34 -157 -125
-196 -210 -36 -77 -78 -213 -88 -282 l-6 -40 17 25 c9 14 49 59 89 101 40 41
85 93 102 115 36 51 69 77 135 108 64 31 86 26 122 -26 48 -68 79 -88 139 -88
93 0 165 37 275 139 71 66 159 135 165 129 15 -15 -210 -419 -326 -584 -43
-61 -94 -139 -113 -175 -37 -68 -90 -218 -102 -284 -4 -22 -9 -49 -12 -60 -8
-30 -9 -455 -1 -455 7 0 48 141 79 275 46 200 109 335 192 413 24 21 26 22 74
7 126 -40 191 -36 266 14 64 44 75 58 127 184 59 140 78 168 145 211 68 43
140 125 200 228 77 130 150 238 161 238 11 0 176 -81 275 -135 104 -57 204
-88 286 -88 39 0 76 3 82 7 6 3 18 28 28 54 9 26 28 71 40 100 26 58 19 55
154 54 81 0 112 -5 175 -27 139 -48 197 -120 276 -349 41 -115 75 -168 127
-199 l32 -19 -5 86 c-6 112 -20 189 -51 291 -16 53 -21 64 -54 135 -55 118
-149 225 -248 283 -137 80 -221 91 -389 48 -43 -11 -103 -23 -132 -26 -53 -5
-55 -4 -110 42 -84 71 -139 133 -163 183 -23 48 -25 84 -27 550 -1 228 -2 205
15 325 22 156 105 403 224 670 60 134 158 382 187 469 122 379 140 420 241
553 53 70 163 233 234 346 61 97 143 279 186 411 25 77 48 143 50 146 2 3 16
-10 30 -28 42 -51 60 -43 57 24 -4 74 -15 232 -20 269 -2 17 -6 62 -10 100 -4
39 -9 77 -10 85 -2 8 -6 44 -10 80 -4 36 -8 72 -10 80 -5 29 -19 145 -30 245
-3 33 -8 71 -11 85 l-6 25 24 -22 c32 -30 56 -29 68 2 5 14 11 25 13 25 2 0
18 -11 37 -25 31 -23 70 -33 70 -19 0 4 -20 24 -45 46 -25 22 -50 50 -57 61
-11 21 -11 21 15 4 26 -17 77 -24 77 -10 0 4 -17 24 -37 45 -20 21 -35 40 -32
42 5 5 35 -9 76 -34 16 -10 27 -11 44 -4 23 11 23 11 -21 52 -25 23 -88 70
-140 104 -88 58 -133 108 -116 126 4 3 27 -1 51 -10 38 -15 45 -15 56 -2 10
12 7 19 -11 39 -22 23 -18 31 12 26 4 0 12 8 17 18 9 16 4 23 -30 47 -38 26
-69 60 -69 75 0 3 28 19 63 35 58 27 70 29 182 28 182 -1 245 -23 660 -230
104 -53 194 -99 200 -104 30 -24 198 -99 247 -110 82 -18 115 1 194 114 76
109 131 165 214 221 63 42 184 96 245 109 73 16 112 22 175 31 44 6 283 6 330
0 19 -3 60 -7 90 -10 56 -7 168 -25 305 -51 24 -4 127 -29 335 -80 8 -2 74
-19 145 -39 152 -41 137 -38 245 -64 47 -11 96 -22 110 -25 19 -3 326 -66 446
-91 12 -3 125 -35 250 -71 621 -178 715 -201 939 -220 100 -9 150 -9 245 0 70
6 86 8 149 21 47 9 136 36 168 51 30 14 36 13 92 -11 33 -13 148 -54 255 -90
240 -79 291 -103 442 -203 66 -44 138 -89 161 -101 55 -28 146 -51 200 -51 46
0 63 17 63 64 0 14 3 26 7 26 8 0 196 -96 313 -159 30 -16 85 -45 121 -64 36
-19 135 -76 219 -127 210 -125 287 -163 316 -156 16 4 35 26 55 61 17 30 34
55 37 55 13 0 131 -77 253 -165 256 -187 368 -239 540 -251 128 -10 131 -8
164 81 15 41 31 78 36 81 6 3 35 -13 65 -36 69 -52 204 -120 309 -156 60 -20
101 -27 165 -28 101 -1 149 18 186 74 30 45 35 67 36 152 l1 67 46 -26 c25
-15 58 -35 73 -45 14 -10 28 -18 31 -18 2 0 52 -29 110 -63 l105 -64 69 22
c51 17 86 22 143 20 75 -3 87 -7 360 -103 114 -41 234 -63 255 -48 16 11 23
53 25 141 1 87 8 90 141 56 63 -16 128 -30 144 -31 64 -4 96 0 101 15 10 24
-48 123 -104 180 -79 80 -120 103 -547 320 -214 109 -412 210 -440 225 -27 15
-144 76 -260 135 -204 105 -532 284 -607 332 -21 12 -42 23 -48 23 -5 0 -10 5
-10 10 0 6 -5 10 -10 10 -6 0 -27 10 -48 23 -48 30 -174 98 -332 178 -224 113
-244 126 -670 444 -162 122 -389 290 -505 375 -115 84 -250 183 -300 220 -248
185 -654 473 -1064 757 -168 116 -319 221 -336 233 l-30 21 35 -5 c19 -3 49
-9 65 -12 17 -3 41 -7 55 -8 14 -2 39 -6 55 -9 17 -4 44 -9 60 -12 17 -3 39
-7 50 -9 11 -2 40 -7 65 -11 51 -8 74 -12 110 -20 14 -2 41 -7 60 -10 19 -3
67 -12 105 -20 92 -18 273 -53 305 -58 14 -3 68 -14 120 -25 52 -12 111 -23
130 -26 19 -4 53 -10 75 -16 22 -5 105 -24 185 -41 183 -39 149 -31 335 -74
88 -20 167 -38 175 -40 74 -15 512 -125 720 -180 96 -26 200 -53 230 -60 68
-16 508 -142 667 -191 65 -20 161 -49 213 -64 52 -16 124 -38 160 -49 196 -60
329 -99 357 -102 5 -1 19 -6 32 -11 22 -8 182 -42 316 -68 172 -32 201 -21
192 75 -5 53 -4 55 19 55 26 0 154 -32 219 -55 22 -8 110 -39 195 -69 160 -56
248 -84 297 -92 15 -2 39 -7 53 -9 14 -3 55 -7 91 -10 76 -5 74 -8 78 91 6
164 -123 351 -387 562 -230 183 -303 227 -657 392 -360 168 -748 314 -1185
445 -202 60 -693 198 -750 210 -8 2 -78 19 -155 40 -77 20 -147 38 -155 40
-78 18 -663 172 -880 232 -283 78 -516 139 -560 148 -56 10 -260 75 -329 104
-125 52 -262 131 -556 318 -188 120 -246 148 -749 358 -104 44 -135 60 -120
66 10 3 73 21 139 40 117 32 267 90 266 103 -1 3 -34 75 -75 158 -40 84 -87
183 -105 219 -35 76 -90 159 -134 206 -28 30 -29 34 -15 50 33 39 30 53 -25
127 -29 39 -88 131 -132 205 -88 147 -166 244 -271 338 -160 143 -328 253
-580 381 -98 50 -292 142 -300 142 -2 0 -28 11 -57 25 -84 38 -533 212 -697
270 -77 27 -114 41 -185 68 -22 9 -96 37 -165 63 -118 45 -185 73 -340 146
-36 17 -153 78 -260 136 -163 88 -304 158 -405 202 -35 15 -169 59 -210 69
-39 10 -56 13 -145 26 -84 12 -95 13 -185 20 -49 3 -112 8 -140 10 -27 3 -77
7 -110 10 -325 27 -488 100 -679 304 -244 260 -320 328 -591 531 -77 58 -147
110 -155 117 -8 7 -257 205 -552 440 -295 235 -576 460 -624 498 -47 39 -101
81 -119 95 -86 66 -301 235 -305 240 -3 3 -97 77 -210 165 -113 87 -234 182
-270 210 -36 28 -128 98 -205 155 -77 58 -142 108 -145 111 -6 7 -264 190
-350 249 -36 25 -70 50 -76 55 -6 6 -23 19 -38 30 -114 83 -159 142 -261 340
-37 71 -133 239 -215 374 -81 136 -159 266 -172 291 -14 25 -57 100 -95 167
-39 67 -73 128 -77 135 -3 7 -14 27 -24 43 -10 17 -32 55 -49 85 -231 415
-540 915 -648 1048 -7 9 -49 63 -92 118 -176 229 -324 378 -633 637 -185 156
-697 403 -903 437 -34 5 -74 12 -89 15 -16 3 -43 8 -60 11 -54 9 -510 12 -553
3z"/>
</g>
</svg>
